<?xml version="1.0" encoding="utf-8"?>
<!-- Generator: Adobe Illustrator 22.1.0, SVG Export Plug-In . SVG Version: 6.00 Build 0)  -->
<svg version="1.1" id="Layer_1" xmlns="http://www.w3.org/2000/svg" xmlns:xlink="http://www.w3.org/1999/xlink" x="0px" y="0px"
	 viewBox="0 0 64 64" style="enable-background:new 0 0 64 64;" xml:space="preserve">
<style type="text/css">
	.st0{fill:url(#SVGID_1_);}
</style>
<g id="shepe-04">
	<g>
		
			<linearGradient id="SVGID_1_" gradientUnits="userSpaceOnUse" x1="0.0002" y1="32" x2="63.9999" y2="32" gradientTransform="matrix(1 0 0 -1 0 64)">
			<stop  offset="0" style="stop-color:#F15B29"/>
			<stop  offset="1" style="stop-color:#BF1689"/>
		</linearGradient>
		<path class="st0" d="M62.2238,10.6668H50.6666V2.2166C50.6666,0.7424,50.3645,0,48.8906,0H16.8904
			c-1.4736,0-3.5571,0.7424-3.5571,2.2166v8.4502h-9.776c-1.4736,0-3.5571,0.7421-3.5571,2.2163v48.0001
			C0.0002,62.3568,2.0837,64,3.5573,64h58.6666c1.4739,0,1.776-1.6432,1.776-3.1168V12.8831
			C63.9998,11.4089,63.6978,10.6668,62.2238,10.6668z M18.6664,5.3337h26.6667v5.3331H18.6664V5.3337z M58.6664,58.6666H5.3333
			V16.0002h53.3332L58.6664,58.6666L58.6664,58.6666z M22.2239,42.6666h4.4427v4.883c0,1.4739,2.0836,3.1171,3.5574,3.1171h5.3334
			c1.4739,0,1.776-1.6432,1.776-3.1171v-4.883h6.2238c1.4739,0,1.776-1.6429,1.776-3.1168v-5.3334
			c0-1.4742-0.3021-2.2162-1.776-2.2162h-6.2238v-5.7839c0-1.4742-0.3021-2.2159-1.776-2.2159H30.224
			c-1.4739,0-3.5574,0.7417-3.5574,2.2159v5.7839h-4.4427c-1.4739,0-3.5574,0.742-3.5574,2.2162v5.3334
			C18.6664,41.0237,20.75,42.6666,22.2239,42.6666z M21.3332,34.6669h8.0001v-7.9998h5.3334v7.9998h7.9998v5.3334h-7.9998v7.9998
			h-5.3334v-7.9998h-8.0001C21.3332,40.0003,21.3332,34.6669,21.3332,34.6669z"/>
	</g>
</g>
</svg>
