<?xml version="1.0" encoding="utf-8"?>
<!-- Generator: Adobe Illustrator 22.1.0, SVG Export Plug-In . SVG Version: 6.00 Build 0)  -->
<svg version="1.1" id="Layer_1" xmlns="http://www.w3.org/2000/svg" xmlns:xlink="http://www.w3.org/1999/xlink" x="0px" y="0px"
	 viewBox="0 0 64 64" style="enable-background:new 0 0 64 64;" xml:space="preserve">
<style type="text/css">
	.st0{fill:url(#SVGID_1_);}
</style>
<g id="shape-03">
	
		<linearGradient id="SVGID_1_" gradientUnits="userSpaceOnUse" x1="2.753735e-05" y1="31.9999" x2="64" y2="31.9999" gradientTransform="matrix(1 0 0 -1 0 64)">
		<stop  offset="0" style="stop-color:#F15B29"/>
		<stop  offset="1" style="stop-color:#BF1689"/>
	</linearGradient>
	<path class="st0" d="M58.8174,7.9943c-6.9125-7.1097-18.1159-7.1097-25.0284,0c-0.6679,0.6872-1.2494,1.4248-1.7893,2.1848
		c-0.5375-0.76-1.1214-1.4977-1.7869-2.1848c-6.9125-7.1097-18.1182-7.1097-25.0284,0c-6.9125,7.112-6.9125,18.6391,0,25.7512
		l23.2415,23.9128l3.5738,3.6798l3.5762-3.6798l23.2415-23.9128C65.7275,26.6334,65.7275,15.1063,58.8174,7.9943z M31.9997,54.945
		c0,0-21.5122-23.8376-23.1687-23.8376h13.8041l4.0063-6.7954l10.6848,14.7985l5.3421-8.0031h12.4998
		C53.5146,31.1074,31.9997,54.945,31.9997,54.945z M57.1846,28.3593H41.3328l-4.0066,5.8291L26.6414,19.8726l-5.3417,8.4867H6.8145
		C3.9949,22.8625,4.613,16.4271,8.7582,12.154c4.94-5.0775,12.9431-5.3163,17.8784-0.2388
		c1.1817,1.2132,5.3631,5.3976,5.3631,5.3976s4.1838-4.3639,5.3627-5.5771c4.938-5.0779,12.9435-4.6271,17.8788,0.4508
		C59.386,16.4563,60.0041,22.8625,57.1846,28.3593z"/>
</g>
</svg>
