<?xml version="1.0" encoding="utf-8"?>
<!-- Generator: Adobe Illustrator 22.1.0, SVG Export Plug-In . SVG Version: 6.00 Build 0)  -->
<svg version="1.1" id="Layer_1" xmlns="http://www.w3.org/2000/svg" xmlns:xlink="http://www.w3.org/1999/xlink" x="0px" y="0px"
	 viewBox="0 0 64 64" style="enable-background:new 0 0 64 64;" xml:space="preserve">
<style type="text/css">
	.st0{fill:url(#SVGID_1_);}
</style>
<g id="shape-01">
	
		<linearGradient id="SVGID_1_" gradientUnits="userSpaceOnUse" x1="0.0001" y1="32" x2="63.9999" y2="32" gradientTransform="matrix(1 0 0 -1 0 64)">
		<stop  offset="0" style="stop-color:#F15B29"/>
		<stop  offset="1" style="stop-color:#BF1689"/>
	</linearGradient>
	<path class="st0" d="M62.3333,48.9267l-9.0728-9.0727c-0.7319-14.3567-7.1721-27.1819-17.0573-36.3437
		C34.8645,2.2684,33.4611,1.0986,32,0c-1.4611,1.0986-2.8645,2.2684-4.2032,3.5103c-9.8852,9.1618-16.3251,21.987-17.0573,36.3437
		l-9.0728,9.0727c-0.7498,0.7501-1.6666,1.2764-1.6666,2.75v9.5834C0.0002,62.734,1.193,64,2.6669,64h58.6666
		c1.4736,0,2.6664-1.266,2.6664-2.7399v-9.5834C63.9998,50.2031,63.0834,49.6768,62.3333,48.9267z M32,6.9611
		C41.177,15.1929,47.1278,26.6664,47.8543,40H16.1461C16.8725,26.6664,22.823,15.1929,32,6.9611z M2.6669,61.3333V51.927
		l8.0675-8.0313c0.146,6.1222,1.3439,12.1038,3.3936,17.4376C14.128,61.3333,2.6669,61.3333,2.6669,61.3333z M45.1926,58.6666
		H18.8074c-0.9243-2.6671-1.6328-5.3331-2.1093-7.9998h30.6042C46.8257,53.3335,46.1169,55.9995,45.1926,58.6666z M47.6589,47.9998
		H16.3411C16.1406,45.3331,16,45.3331,16,42.6664h31.9999C47.9999,45.333,47.8594,45.333,47.6589,47.9998z M61.3334,61.3333h-11.461
		c2.0493-5.3337,3.2472-11.3154,3.3932-17.4376l8.0678,8.0313C61.3334,51.927,61.3334,61.3333,61.3334,61.3333z M32,18.5938
		c-4.419,0-7.9998,3.5804-7.9998,7.9998S27.581,34.5937,32,34.5937c4.4193,0,8.0001-3.5807,8.0001-8.0001
		C40.0001,22.1743,36.4193,18.5938,32,18.5938z M32,31.927c-2.9454,0-5.3331-2.388-5.3331-5.3334
		c0-2.9451,2.3876-5.3331,5.3331-5.3331s5.3334,2.388,5.3334,5.3331C37.3334,29.539,34.9454,31.927,32,31.927z"/>
</g>
</svg>
